# xmcd
#
# Track frame offsets: 
#        182
#        15952
#        30975
#        43810
#        58800
#        71980
#        86242
#        100607
#        115515
#        128085
#        141960
#        156352
#        169005
#        182252
#
# Disc length: 2597 seconds
#
# Revision: 2
# Processed by: cddbd v1.5.1PL0 Copyright (c) Steve Scherf et al.
# Submitted via: ExactAudioCopy v0.90b4
#
DISCID=b20a230e
DTITLE=Tampa Red - Bottleneck Guitar 1928-1937
DYEAR=1974
DGENRE=Blues
TTITLE0=It's Heated (Frankie Jaxon)
TTITLE1=You Got To Reap What You Sow
TTITLE2=What Is It That Tastes Like Gravy?
TTITLE3=Black Eye Blues (Ma Rainey)
TTITLE4=The Duck Yas Yas Yas
TTITLE5=It's Red Hot (Madlyn Davis)
TTITLE6=If You Want Me To Love You (With Georgia Tom)
TTITLE7=No Matter How She Done It
TTITLE8=Through Train Blues
TTITLE9=Seminole Blues
TTITLE10=Too Black Bad (Madlyn Davis)
TTITLE11=Come On Mama, Do That Dance (Tampa Red and His Hokum Jug Band)
TTITLE12=Denver Blues
TTITLE13=House Rent Scuffle (Lil Johnson)
EXTD=
EXTT0=Frankie Jaxon vocal\n
EXTT1=
EXTT2=
EXTT3=Ma Rainey vocal\n
EXTT4=
EXTT5=Madlyn Davis vocal\n
EXTT6=Georgia Tom Dorsey vocal\n
EXTT7=
EXTT8=
EXTT9=
EXTT10=Madlyn Davis vocal\n
EXTT11=
EXTT12=
EXTT13=Lil Johnson vocal\n
PLAYORDER=
